<svg width="256" height="256" viewBox="0 0 256 256" fill="none" xmlns="http://www.w3.org/2000/svg">
<rect width="256" height="256" fill="black"/>
<path fill-rule="evenodd" clip-rule="evenodd" d="M63 53C57.4772 53 53 57.4772 53 63L53 193C53 198.523 57.4772 203 63 203H193C198.523 203 203 198.523 203 193V63C203 57.4772 198.523 53 193 53L63 53ZM87.934 142.934C85.1726 142.934 82.934 145.173 82.934 147.934V167.934C82.934 170.695 85.1726 172.934 87.934 172.934H167.934C170.695 172.934 172.934 170.695 172.934 167.934V147.934C172.934 145.173 170.695 142.934 167.934 142.934H87.934ZM142.934 87.934C142.934 85.1726 145.173 82.934 147.934 82.934H167.934C170.695 82.934 172.934 85.1726 172.934 87.934V107.934C172.934 110.695 170.695 112.934 167.934 112.934H147.934C145.173 112.934 142.934 110.695 142.934 107.934V87.934ZM87.934 82.934C85.1726 82.934 82.934 85.1726 82.934 87.934L82.934 107.934C82.934 110.695 85.1726 112.934 87.934 112.934H107.934C110.695 112.934 112.934 110.695 112.934 107.934V87.934C112.934 85.1726 110.695 82.934 107.934 82.934H87.934Z" fill="url(#paint0_linear_1_27)"/>
<defs>
<linearGradient id="paint0_linear_1_27" x1="128" y1="53" x2="128" y2="203" gradientUnits="userSpaceOnUse">
<stop stop-color="#CC55FF"/>
<stop offset="1" stop-color="#55CCFF"/>
</linearGradient>
</defs>
</svg>
