<svg width="256" height="256" viewBox="0 0 256 256" fill="none" xmlns="http://www.w3.org/2000/svg">
<path d="M172.372 87.2768C172.336 87.2075 172.277 87.1532 172.204 87.1237C163.841 83.2974 155.014 80.569 145.947 79.0067C145.864 78.9914 145.779 79.0024 145.703 79.0382C145.628 79.0739 145.565 79.1326 145.525 79.2058C144.323 81.3808 143.232 83.6149 142.256 85.8995C132.481 84.4201 122.539 84.4201 112.764 85.8995C111.782 83.6091 110.673 81.3744 109.444 79.2058C109.402 79.1341 109.339 79.0769 109.264 79.0413C109.188 79.0058 109.104 78.9938 109.022 79.0067C99.9531 80.5657 91.1263 83.2943 82.7636 87.1239C82.692 87.1541 82.6316 87.2058 82.5907 87.2717C65.8669 112.174 61.2857 136.464 63.5331 160.453C63.5394 160.512 63.5575 160.569 63.5864 160.62C63.6152 160.672 63.6541 160.717 63.7009 160.754C73.439 167.943 84.3312 173.431 95.9126 176.982C95.9942 177.007 96.0813 177.006 96.1622 176.979C96.2431 176.953 96.314 176.902 96.3652 176.835C98.8527 173.46 101.057 169.886 102.955 166.15C102.981 166.099 102.996 166.043 102.999 165.985C103.001 165.928 102.992 165.871 102.971 165.817C102.95 165.764 102.917 165.715 102.876 165.675C102.835 165.635 102.786 165.604 102.731 165.584C99.2558 164.258 95.891 162.66 92.6685 160.804C92.61 160.77 92.5608 160.721 92.5254 160.664C92.4899 160.606 92.4693 160.54 92.4653 160.473C92.4613 160.405 92.474 160.338 92.5024 160.276C92.5308 160.215 92.5739 160.161 92.628 160.12C93.3041 159.615 93.9807 159.09 94.6264 158.559C94.6837 158.512 94.7531 158.482 94.8268 158.472C94.9004 158.462 94.9754 158.473 95.0432 158.503C116.155 168.11 139.011 168.11 159.873 158.503C159.94 158.471 160.016 158.458 160.091 158.467C160.166 158.476 160.236 158.506 160.295 158.554C160.94 159.085 161.617 159.615 162.298 160.12C162.352 160.161 162.396 160.214 162.425 160.275C162.454 160.336 162.467 160.404 162.463 160.471C162.46 160.539 162.44 160.605 162.405 160.663C162.37 160.721 162.321 160.769 162.263 160.804C159.047 162.675 155.68 164.273 152.195 165.579C152.141 165.6 152.092 165.631 152.051 165.672C152.01 165.713 151.978 165.762 151.957 165.816C151.936 165.87 151.927 165.927 151.93 165.985C151.934 166.043 151.949 166.099 151.975 166.15C153.905 169.866 156.106 173.435 158.56 176.829C158.61 176.898 158.68 176.951 158.762 176.978C158.843 177.006 158.931 177.007 159.013 176.982C170.615 173.442 181.526 167.954 191.276 160.754C191.324 160.719 191.363 160.675 191.392 160.624C191.421 160.573 191.439 160.516 191.444 160.458C194.135 132.724 186.94 108.633 172.372 87.2768ZM106.108 145.846C99.7517 145.846 94.5145 140.03 94.5145 132.887C94.5145 125.745 99.6501 119.928 106.108 119.928C112.616 119.928 117.803 125.795 117.701 132.887C117.701 140.03 112.565 145.846 106.108 145.846ZM148.972 145.846C142.616 145.846 137.379 140.03 137.379 132.887C137.379 125.745 142.514 119.928 148.972 119.928C155.481 119.928 160.667 125.795 160.565 132.887C160.565 140.03 155.481 145.846 148.972 145.846Z" fill="url(#paint0_linear_202_2)"/>
<defs>
<linearGradient id="paint0_linear_202_2" x1="127.5" y1="79" x2="127.5" y2="177" gradientUnits="userSpaceOnUse">
<stop stop-color="#CC55FF"/>
<stop offset="1" stop-color="#55CCFF"/>
</linearGradient>
</defs>
</svg>
